PathFileType	4	(X/Y/Z)	C:/Users/beibeiliu/ov580/test_trc\sequence.35_training_dense_left.trc
DataRate	CameraRate	NumFrames	NumMarkers	Units	OrigDataRate	OrigDataStartFrame	OrigNumFrames
120	120	16	19	mm	120	1	169
Frame#	Time	ThumbCMC			ThumbMCP			ThumbIP			ThumbTip			IndexMCP			IndexPIP			IndexTip			MiddleMCP			MiddlePIP			MiddleTip			RingMCP			RingPIP			RingTip			PinkyMCP			PinkyPIP			PinkyTip			BackHand1			BackHand2			BackHand3	
		X0	Y0	Z0	X1	Y1	Z1	X2	Y2	Z2	X3	Y3	Z3	X4	Y4	Z4	X5	Y5	Z5	X6	Y6	Z6	X7	Y7	Z7	X8	Y8	Z8	X9	Y9	Z9	X10	Y10	Z10	X11	Y11	Z11	X12	Y12	Z12	X13	Y13	Z13	X14	Y14	Z14	X15	Y15	Z15	X16	Y16	Z16	X17	Y17	Z17	X18	Y18	Z18	
0	0	-213.417	77.6054	-11.0492	-189.385	90.7293	-24.0921	-169.561	95.8735	-38.6816	-145.021	93.6802	-47.5561	-170.345	44.7077	-53.2935	-150.991	48.1312	-64.9649	-125.815	51.5067	-77.4789	-152.261	41.7364	-37.9935	-129.019	59.4695	-32.6138	-127.404	82.6675	-11.7432	-148.536	25.3462	-27.7886	-128.964	29.4555	-32.4371	-108.109	39.8419	-34.1568	-153.813	9.97972	-2.54358	-141.511	5.02041	-7.20898	-127.282	-6.24657	-17.1983	-193.857	22.5014	-5.9363	-215.728	29.5299	15.5863	-214.765	41.6046	-12.8595	
1	0.00833333	-197.971	97.3637	-5.04757	-169.831	99.9071	-15.7908	-151.374	92.1534	-25.715	-129.251	85.6383	-35.9968	-173.558	54.643	-50.8184	-152.539	46.9615	-61.9896	-131.122	39.9	-71.6192	-159.93	42.7033	-38.8849	-135.201	44.123	-33.9706	-119.557	59.0402	-8.29554	-169.792	22.6552	-26.0413	-147.321	21.2664	-34.1452	-119.005	21.4329	-33.7155	-182.498	17.2479	-7.09164	-169.14	-0.495793	-16.7558	-163.335	-11.4509	-25.1074	-210.347	42.4566	-3.09346	-226.534	55.6038	11.4338	-216.548	69.983	-13.1835	
2	0.0166667	-184.01	107.382	4.42672	-159.383	96.9727	-5.1485	-140.065	82.9964	-21.5123	-129.043	71.9765	-27.9008	-177.407	65.3404	-53.227	-167.802	50.2947	-60.5559	-152.227	39.5318	-73.7781	-181.716	45.5237	-40.0442	-155.762	32.46	-39.8235	-132.7	31.9446	-20.5326	-195.43	37.2734	-31.4468	-174.115	18.0932	-41.087	-153.774	6.83802	-40.4876	-211.513	29.7215	-10.9596	-207.925	12.2406	-22.3509	-204.335	-0.117675	-34.7734	-221.936	64.4022	-2.52826	-227.892	82.1187	14.7256	-214.393	93.2094	-5.42676	
3	0.025	-174.408	99.4385	5.5305	-160.095	79.7582	-3.86464	-148.602	65.4281	-18.9305	-139.31	52.9126	-28.6006	-192.871	69.3977	-51.2993	-185.898	54.6603	-68.3863	-184.227	38.8386	-77.4914	-204.678	56.0875	-44.0342	-190.909	29.0779	-53.5637	-173.116	9.60352	-42.9866	-220.643	49.4185	-35.7281	-214.685	27.2928	-49.3606	-203.66	12.4618	-55.5967	-233.305	49.947	-12.5673	-242.788	36.8827	-28.082	-250.81	24.9597	-40.2912	-227.911	78.8403	-1.29654	-230.374	93.2014	21.2243	-209.732	102.334	-1.7755	
4	0.0333333	-181.626	80.9379	11.8538	-170.173	58.6537	-7.14773	-161.189	45.492	-21.7976	-155.405	32.1799	-36.0342	-204.161	72.1011	-50.6616	-206.645	60.1053	-68.1941	-206.248	47.632	-87.2273	-224.069	61.1653	-52.8288	-223.258	38.7329	-69.2677	-220.356	16.1992	-75.5809	-245.177	56.7127	-33.7149	-247.328	41.9988	-57.2921	-248.132	23.3723	-69.6498	-257.045	56.4065	-11.5941	-264.317	53.1039	-28.3769	-279.116	47.3268	-42.1314	-236.998	81.7151	1.88381	-228.292	93.2401	22.438	-211.128	94.841	2.97446	
5	0.0416667	-186.568	67.1763	6.59798	-177.242	48.2001	-9.65629	-171.119	35.4079	-29.8381	-162.284	23.9821	-42.955	-207.534	70.243	-51.3476	-215.647	60.2532	-74.4947	-213.994	54.9073	-92.5545	-235.853	65.0131	-52.7511	-239.141	56.1757	-75.0134	-247.199	39.2191	-93.26	-253.64	59.9199	-36.119	-262.298	52.5326	-59.602	-268.257	44.3944	-74.5566	-262.769	56.7955	-16.8438	-270.808	54.2309	-30.7723	-286.325	50.9381	-44.9357	-236.809	77.8678	3.26162	-232.439	83.813	25.1104	-209.962	86.7595	3.67654	
6	0.05	-180.3	63.4326	6.87126	-169.125	46.0263	-11.1211	-164.388	35.4003	-26.3457	-156.418	26.56	-43.7142	-204.149	72.2404	-55.6046	-201.796	69.5385	-72.7964	-205.084	67.378	-94.7477	-230.331	71.4645	-54.4552	-232.026	71.0984	-74.4006	-242.06	67.7579	-100.767	-242.549	64.5929	-39.2491	-253.988	63.3226	-60.9497	-261.523	63.9413	-83.3659	-260.386	53.0634	-22.8132	-270.079	50.2323	-40.9517	-280.657	50.4612	-53.1619	-231.3	72.6891	1.09954	-230.879	78.0545	25.5009	-209.034	83.5835	5.92829	
7	0.0583333	-172.522	62.895	12.2301	-161.41	45.631	-7.03162	-150.605	36.4983	-28.9834	-141.777	27.4062	-42.0386	-190.538	78.3711	-53.7861	-187.655	77.8179	-76.9052	-190.448	79.3001	-94.2572	-216.805	79.2102	-55.0875	-220.533	82.1721	-74.4011	-226.069	88.6943	-102.059	-232.292	71.7481	-42.4512	-244.876	73.5746	-62.6031	-250.315	77.3986	-80.6111	-253.162	58.4571	-29.567	-258.624	55.9532	-43.2241	-272.619	55.9565	-61.0269	-228.228	74.3022	-0.285887	-223.754	78.5061	21.7907	-197.664	85.1177	4.61566	
8	0.0666667	-169.168	58.8424	9.0551	-159.376	41.4468	-9.8795	-151.198	32.6289	-26.9319	-139.636	23.059	-44.6482	-183.261	78.1337	-51.3184	-180.881	79.7597	-76.8803	-176.144	83.2777	-97.7067	-208.842	80.9099	-52.1185	-216.32	86.9427	-76.5214	-219.637	95.2	-96.6269	-228.855	74.564	-44.36	-237.729	77.7258	-63.2432	-241.156	83.6202	-84.6979	-246.471	61.093	-26.8556	-253.687	60.1488	-43.4511	-268.064	62.1228	-59.2026	-220.409	75.2748	-3.34101	-218.906	77.8734	23.9111	-193.477	81.4477	5.37728	
9	0.075	-168.388	55.654	11.1105	-153.848	36.8438	-8.7459	-145.048	28.2415	-24.2987	-140.818	18.6196	-40.6084	-177.75	76.1984	-51.7758	-178.445	77.5742	-71.3663	-174.365	81.9585	-93.7558	-203.622	81.3752	-53.8643	-207.023	87.099	-73.9966	-213.285	95.4	-94.1576	-222.415	74.6571	-46.5193	-234.146	75.8511	-62.5945	-237.691	78.0668	-84.9174	-239.067	62.6928	-27.836	-253.351	62.1792	-44.0573	-263.303	65.8577	-57.7752	-219.441	74.9208	-1.75616	-215.256	77.6838	20.5942	-188.584	79.6818	6.8883	
10	0.0833333	-163.195	53.4507	10.1836	-153.758	35.2925	-7.80507	-145.213	25.5198	-26.4576	-135.964	16.4201	-42.5137	-175.429	75.0778	-51.5219	-170.633	75.9274	-71.2647	-169.431	79.3268	-95.5015	-200.109	82.1257	-53.9651	-202.183	86.4227	-72.1534	-210.673	95.5129	-92.7206	-223.581	72.4148	-43.4399	-228.687	73.492	-64.8597	-231.206	71.7827	-89.1297	-235.598	64.9539	-27.0009	-248.677	67.0883	-42.4541	-258.969	71.1166	-55.7119	-215.033	75.2552	-0.00784145	-210.553	76.0212	21.0513	-186.411	79.1824	7.78923	
11	0.0916667	-166.402	51.1826	14.1089	-151.727	33.59	-5.65507	-143.986	25.3634	-24.9109	-139.956	17.8436	-41.466	-171.805	75.5225	-50.5715	-168.616	75.4471	-73.066	-167.976	75.6549	-91.945	-197.071	82.614	-50.1116	-201.439	89.3084	-72.689	-205.473	98.881	-95.6967	-219.415	73.8902	-41.958	-222.23	72.7504	-66.1983	-228.025	66.2085	-86.9343	-235.494	70.5583	-30.9872	-243.724	70.8599	-41.4199	-259.12	77.7085	-54.9267	-213.118	78.6616	-0.340825	-211.174	77.4238	24.8368	-181.94	76.8379	7.51315	
12	0.1	-167.445	50.6294	10.7048	-158.691	32.8779	-7.54812	-145.558	23.2431	-25.3886	-137.684	16.5387	-41.2752	-170.456	74.2215	-50.9424	-166.494	72.7086	-71.8613	-166.769	70.706	-91.2213	-194.176	82.8328	-51.6608	-199.131	89.0166	-73.991	-203.439	96.8362	-92.1859	-220.003	74.7882	-43.7253	-219.32	70.165	-70.6329	-223.581	58.9064	-89.0321	-236.314	69.6594	-26.0883	-243.856	72.4335	-40.6071	-255.568	82.4685	-56.9052	-208.957	76.1773	-1.7616	-208.741	74.8016	27.3637	-184.1	74.6283	11.0481	
13	0.108333	-165.038	44.5737	15.1083	-153.239	28.6981	-7.77469	-144.361	21.5092	-27.292	-137.637	13.4429	-43.4623	-171.51	71.2255	-47.3576	-166.511	69.2508	-69.1676	-164.804	63.4421	-95.1285	-192	82.3432	-52.5341	-192.663	86.7077	-73.5934	-195.58	93.8312	-92.543	-213.703	73.8905	-46.7313	-216.625	68.5419	-67.6789	-217.418	54.9621	-87.5631	-231.868	72.4406	-31.486	-243.09	74.9695	-45.79	-249.089	83.9069	-58.1908	-207.464	74.4648	-1.36792	-206.583	74.6713	25.4617	-181.462	73.6735	14.2632	
14	0.116667	-160.181	42.2968	16.492	-151.446	26.0752	-2.71735	-141.891	17.8395	-23.0926	-136.866	11.7215	-40.7607	-166.731	68.4055	-48.7583	-163.911	64.3485	-69.7051	-161.916	55.3855	-92.6716	-185.122	78.7062	-47.9872	-185.281	83.8599	-70.915	-190.071	92.8669	-96.8297	-207.888	72.1941	-44.9581	-211.093	66.0436	-69.2111	-210.355	52.2643	-85.7049	-230.914	71.4024	-29.2817	-235.897	74.1256	-40.8701	-245.421	86.36	-57.3849	-207.249	74.1008	3.22191	-202.964	70.0078	25.7532	-179.2	71.1019	13.3382	
15	0.125	-158.064	39.1735	17.4412	-149.404	23.8847	-4.41301	-138.045	16.2006	-25.7286	-132.834	7.21762	-37.4074	-160.106	64.867	-45.8911	-156.254	58.647	-68.9945	-160.7	48.2642	-93.934	-182.417	77.5944	-46.0972	-177.796	82.3819	-72.9645	-180.642	88.6223	-93.2184	-203.484	71.9828	-42.4341	-203.33	66.2783	-66.9042	-205.969	52.4146	-86.3373	-225.912	71.1693	-27.5683	-228.774	75.3502	-42.7442	-235.275	87.0239	-57.4494	-200.61	72.1344	0.9774	-199.795	69.2081	27.5215	-172.746	70.632	12.628	
